grf
version=1
nRows=15
nColumns=37
inDegrees=no
endheader
time	ground_force_1_vx	ground_force_1_vy	ground_force_1_vz	ground_force_1_px	ground_force_1_py	ground_force_1_pz	ground_moment_1_mx	ground_moment_1_my	ground_moment_1_mz	ground_force_2_vx	ground_force_2_vy	ground_force_2_vz	ground_force_2_px	ground_force_2_py	ground_force_2_pz	ground_moment_2_mx	ground_moment_2_my	ground_moment_2_mz	ground_force_3_vx	ground_force_3_vy	ground_force_3_vz	ground_force_3_px	ground_force_3_py	ground_force_3_pz	ground_moment_3_mx	ground_moment_3_my	ground_moment_3_mz	ground_force_4_vx	ground_force_4_vy	ground_force_4_vz	ground_force_4_px	ground_force_4_py	ground_force_4_pz	ground_moment_4_mx	ground_moment_4_my	ground_moment_4_mz
      0.00000000	      0.00000000	     -0.00000000	      0.00000000	      0.00000000	      0.00000000	      0.00000000	      0.00000000	      0.00000000	      0.00000000	      2.58901882	     12.12173462	   -276.01394653	   -335.96091780	   -995.14980322	      0.00000000	      0.00000000	      0.00000000	   2203.52460876	     -0.82034159	    -12.96144097	   -489.37918091	   -342.63171842	   -798.14437189	      0.00000000	      0.00000000	     -0.00000000	  -3118.59473006	      0.00000000	     -0.00000000	      0.00000000	      0.00000000	      0.00000000	      0.00000000	      0.00000000	      0.00000000	      0.00000000
      0.01000000	      0.00000000	     -0.00000000	      0.00000000	      0.00000000	      0.00000000	      0.00000000	      0.00000000	      0.00000000	      0.00000000	      2.53383875	     12.14188480	   -274.28979492	   -336.14848361	   -993.52879640	      0.00000000	      0.00000000	      0.00000000	   2084.01647099	     -1.14214857	    -13.11577596	   -490.16522217	   -342.13937303	   -797.92327384	      0.00000000	      0.00000000	     -0.00000000	  -3111.02437389	      0.00000000	     -0.00000000	      0.00000000	      0.00000000	      0.00000000	      0.00000000	      0.00000000	      0.00000000	      0.00000000
      0.02000000	      0.00000000	     -0.00000000	      0.00000000	      0.00000000	      0.00000000	      0.00000000	      0.00000000	      0.00000000	      0.00000000	      2.19727802	     11.77494812	   -276.18670654	   -335.49259178	   -996.63979436	      0.00000000	      0.00000000	      0.00000000	   2108.85850883	     -1.70790680	    -13.14922413	   -490.42755127	   -342.00271028	   -796.74868313	      0.00000000	      0.00000000	     -0.00000000	  -3138.69555156	      0.00000000	     -0.00000000	      0.00000000	      0.00000000	      0.00000000	      0.00000000	      0.00000000	      0.00000000	      0.00000000
      0.03000000	      0.00000000	     -0.00000000	      0.00000000	      0.00000000	      0.00000000	      0.00000000	      0.00000000	      0.00000000	      0.00000000	      2.61996818	     11.91063976	   -274.71817017	   -335.50746176	   -994.96446865	      0.00000000	      0.00000000	      0.00000000	   2311.23580360	     -1.88556989	    -13.14958461	   -489.98974609	   -341.56939922	   -798.18614105	      0.00000000	      0.00000000	     -0.00000000	  -3246.80855849	      0.00000000	     -0.00000000	      0.00000000	      0.00000000	      0.00000000	      0.00000000	      0.00000000	      0.00000000	      0.00000000
      0.04000000	      0.00000000	     -0.00000000	      0.00000000	      0.00000000	      0.00000000	      0.00000000	      0.00000000	      0.00000000	      0.00000000	      2.31049466	     11.83061409	   -273.90252686	   -335.75965250	   -994.01351608	      0.00000000	      0.00000000	      0.00000000	   2081.55284702	     -1.97454627	    -13.15993101	   -492.61361694	   -341.22451443	   -797.64644609	      0.00000000	      0.00000000	     -0.00000000	  -3127.20082846	      0.00000000	     -0.00000000	      0.00000000	      0.00000000	      0.00000000	      0.00000000	      0.00000000	      0.00000000	      0.00000000
      0.05000000	      0.00000000	     -0.00000000	      0.00000000	      0.00000000	      0.00000000	      0.00000000	      0.00000000	      0.00000000	      0.00000000	      2.34345698	     11.95881367	   -274.96389771	   -336.26874577	   -996.23146538	      0.00000000	      0.00000000	      0.00000000	   1981.69562355	     -1.80700274	    -13.11385616	   -492.48590088	   -342.22288022	   -798.33262054	      0.00000000	      0.00000000	     -0.00000000	  -3021.68035316	      0.00000000	     -0.00000000	      0.00000000	      0.00000000	      0.00000000	      0.00000000	      0.00000000	      0.00000000	      0.00000000
      0.06000000	      0.00000000	     -0.00000000	      0.00000000	      0.00000000	      0.00000000	      0.00000000	      0.00000000	      0.00000000	      0.00000000	      2.39210606	     11.84671688	   -274.90264893	   -336.05360474	   -996.18004576	      0.00000000	      0.00000000	      0.00000000	   2069.20839421	     -1.66214091	    -13.02508435	   -493.90225220	   -341.40333539	   -798.57836358	      0.00000000	      0.00000000	     -0.00000000	  -3086.92340872	      0.00000000	     -0.00000000	      0.00000000	      0.00000000	      0.00000000	      0.00000000	      0.00000000	      0.00000000	      0.00000000
      0.07000000	      0.00000000	     -0.00000000	      0.00000000	      0.00000000	      0.00000000	      0.00000000	      0.00000000	      0.00000000	      0.00000000	      2.27916980	     11.91904259	   -273.97351074	   -336.43787914	   -994.17832321	      0.00000000	      0.00000000	      0.00000000	   2179.18993503	     -1.53169082	    -13.41598974	   -495.35321045	   -341.22318404	   -798.11431813	      0.00000000	      0.00000000	     -0.00000000	  -3085.72228653	      0.00000000	     -0.00000000	      0.00000000	      0.00000000	      0.00000000	      0.00000000	      0.00000000	      0.00000000	      0.00000000
      0.08000000	      0.00000000	     -0.00000000	      0.00000000	      0.00000000	      0.00000000	      0.00000000	      0.00000000	      0.00000000	      0.00000000	      2.37643886	     11.84682560	   -274.77398682	   -335.77982171	   -995.52554645	      0.00000000	      0.00000000	      0.00000000	   2125.67143426	     -1.40404936	    -13.23974311	   -496.68148804	   -341.27785563	   -798.14114880	      0.00000000	      0.00000000	     -0.00000000	  -3298.30094452	      0.00000000	     -0.00000000	      0.00000000	      0.00000000	      0.00000000	      0.00000000	      0.00000000	      0.00000000	      0.00000000
      0.09000000	      0.00000000	     -0.00000000	      0.00000000	      0.00000000	      0.00000000	      0.00000000	      0.00000000	      0.00000000	      0.00000000	      2.33725429	     12.32492733	   -273.84167480	   -336.05691409	   -994.76781284	      0.00000000	      0.00000000	      0.00000000	   2080.65291680	     -1.87112639	    -13.33657439	   -497.76306152	   -340.88985319	   -798.09796892	      0.00000000	      0.00000000	     -0.00000000	  -3221.08609419	      0.00000000	     -0.00000000	      0.00000000	      0.00000000	      0.00000000	      0.00000000	      0.00000000	      0.00000000	      0.00000000
      0.10000000	      0.00000000	     -0.00000000	      0.00000000	      0.00000000	      0.00000000	      0.00000000	      0.00000000	      0.00000000	      0.00000000	      2.50941205	     12.03260422	   -273.51507568	   -336.45191554	   -995.61813802	      0.00000000	      0.00000000	      0.00000000	   2237.78789163	     -1.92730758	    -13.34439928	   -499.09527588	   -340.78590453	   -797.55616258	      0.00000000	      0.00000000	     -0.00000000	  -3269.01244820	      0.00000000	     -0.00000000	      0.00000000	      0.00000000	      0.00000000	      0.00000000	      0.00000000	      0.00000000	      0.00000000
      0.11000000	      0.00000000	     -0.00000000	      0.00000000	      0.00000000	      0.00000000	      0.00000000	      0.00000000	      0.00000000	      0.00000000	      2.08373451	     11.92453384	   -273.23501587	   -335.87388295	   -997.05732928	      0.00000000	      0.00000000	      0.00000000	   2043.37787846	     -2.18570157	    -13.21632366	   -499.28680420	   -340.80894299	   -797.45669951	      0.00000000	      0.00000000	     -0.00000000	  -3088.25105041	      0.00000000	     -0.00000000	      0.00000000	      0.00000000	      0.00000000	      0.00000000	      0.00000000	      0.00000000	      0.00000000
      0.12000000	      0.00000000	     -0.00000000	      0.00000000	      0.00000000	      0.00000000	      0.00000000	      0.00000000	      0.00000000	      0.00000000	      2.30591583	     11.95559788	   -271.24218750	   -335.97013523	   -995.00581814	      0.00000000	      0.00000000	      0.00000000	   2128.89436802	     -2.07228565	    -13.65099698	   -500.13876343	   -340.40990929	   -797.38380688	      0.00000000	      0.00000000	     -0.00000000	  -3212.46703143	      0.00000000	     -0.00000000	      0.00000000	      0.00000000	      0.00000000	      0.00000000	      0.00000000	      0.00000000	      0.00000000
      0.13000000	      0.00000000	     -0.00000000	      0.00000000	      0.00000000	      0.00000000	      0.00000000	      0.00000000	      0.00000000	      0.00000000	      1.78992653	     11.73931026	   -272.32437134	   -336.10808778	   -996.07767144	      0.00000000	      0.00000000	      0.00000000	   1907.76323642	     -1.97670889	    -13.62649996	   -500.40637207	   -340.53569851	   -797.25358064	      0.00000000	      0.00000000	     -0.00000000	  -3216.71755434	      0.00000000	     -0.00000000	      0.00000000	      0.00000000	      0.00000000	      0.00000000	      0.00000000	      0.00000000	      0.00000000
      0.14000000	      0.00000000	     -0.00000000	      0.00000000	      0.00000000	      0.00000000	      0.00000000	      0.00000000	      0.00000000	      0.00000000	      2.10952353	     12.11636353	   -271.24218750	   -335.56259541	   -997.42066304	      0.00000000	      0.00000000	      0.00000000	   2044.42548829	     -2.24306701	    -13.39971046	   -500.65820312	   -340.15449891	   -797.44964285	      0.00000000	      0.00000000	     -0.00000000	  -3177.21290911	      0.00000000	     -0.00000000	      0.00000000	      0.00000000	      0.00000000	      0.00000000	      0.00000000	      0.00000000	      0.00000000
